<svg width="24" height="24" viewBox="0 0 24 24" fill="none" xmlns="http://www.w3.org/2000/svg">
<path d="M10.616 15.077H7.077C5.949 15.077 4.98767 14.6797 4.193 13.885C3.39833 13.0903 3.00067 12.1287 3 11C2.99933 9.87133 3.397 8.90966 4.193 8.115C4.989 7.32033 5.95033 6.92266 7.077 6.922H10.616V7.922H7.077C6.23033 7.922 5.506 8.22333 4.904 8.826C4.30133 9.42933 4 10.154 4 11C4 11.846 4.30133 12.5703 4.904 13.173C5.50667 13.7757 6.231 14.077 7.077 14.077H10.616V15.077ZM8.5 11.5V10.5H15.5V11.5H8.5ZM13.385 15.077V14.077H16.923C17.7697 14.077 18.494 13.7757 19.096 13.173C19.6987 12.5703 20 11.846 20 11C20 10.154 19.6987 9.42966 19.096 8.827C18.4933 8.22433 17.769 7.923 16.923 7.923H13.385V6.923H16.923C18.051 6.923 19.0127 7.32033 19.808 8.115C20.6033 8.90966 21.0007 9.87133 21 11C20.9993 12.1287 20.6017 13.0903 19.807 13.885C19.0123 14.6797 18.051 15.0773 16.923 15.078L13.385 15.077Z" fill="black"/>
</svg>
